<svg width="699" height="663" viewBox="0 0 699 663" fill="none" xmlns="http://www.w3.org/2000/svg">
<path d="M469.057 55.6729C495.89 66.1729 562.657 106.973 615.057 186.173C621.39 193.673 639.557 217.673 661.557 253.673C677.724 275.673 706.957 331.573 694.557 379.173C677.724 446.84 613.457 594.673 491.057 644.673C455.39 658.006 344.757 676.673 187.557 644.673C168.557 639.506 116.857 609.073 62.057 528.673C28.8904 488.506 -26.543 362.973 17.057 182.173C18.7237 175.006 23.057 160.173 24.057 153.173C24.557 151.173 24.457 147.073 26.057 144.673C26.9569 143.323 27.557 142.273 27.557 138.673C27.557 136.006 28.757 129.573 29.557 125.173C31.2237 116.673 36.957 97.3729 46.557 88.173C63.557 72.0063 106.857 36.373 144.057 23.1729C167.057 15.0116 226.057 -0.826908 337.057 1.17294C362.569 1.63259 401.636 15.098 418.057 26.1729C439.557 40.6729 444.057 44.1729 469.057 55.6729Z" fill="#691C70" stroke="#691C70"/>
<path d="M146.057 596.673C135.202 587.081 103.957 562.173 67.5571 500.173C57.5571 481.507 36.2571 438.173 31.0571 414.173C29.3905 406.506 26.2571 384.773 27.0571 359.173C28.0571 327.173 31.0571 294.173 33.5571 261.173C35.0571 223.673 42.9571 141.373 62.5571 112.173C71.8904 99.1731 95.5571 71.6731 113.057 60.6731C134.557 47.1588 137.257 46.1731 178.057 34.1731C183.89 32.1731 206.557 28.1732 250.557 28.1732C274.224 27.5065 330.257 27.3732 365.057 32.1732C379.057 34.1042 390.057 35.1732 418.057 49.1732C434.39 58.1732 476.257 83.7732 513.057 114.173C513.89 115.84 518.857 121.373 532.057 130.173C540.224 133.84 561.157 147.173 579.557 171.173C590.89 185.673 617.957 222.473 635.557 253.673C646.557 271.173 669.657 312.873 674.057 339.673C675.224 348.507 675.757 373.373 668.557 402.173C664.39 417.173 651.857 453.773 635.057 480.173C624.057 497.007 599.757 532.273 590.557 538.673C589.39 539.34 586.257 542.073 583.057 547.673C579.557 553.34 566.057 569.573 540.057 589.173C526.057 600.007 493.257 622.973 474.057 628.173C452.724 634.007 403.057 644.873 375.057 641.673C367.224 640.84 346.257 639.173 325.057 639.173C316.39 639.007 304.057 639.673 297.057 638.173C295.39 637.673 290.057 636.673 282.057 636.673C263.724 636.673 222.157 634.773 202.557 627.173C175.557 618.673 167.557 615.673 146.057 596.673Z" fill="white" stroke="white"/>
<path d="M597.057 231.673C592.557 232.506 582.457 232.273 578.057 224.673C577.224 222.84 575.357 218.273 574.557 214.673C573.557 211.506 572.357 204.173 575.557 200.173C578.224 197.34 585.857 195.373 595.057 210.173C599.224 216.673 605.457 230.073 597.057 231.673Z" fill="#691C70" stroke="#691C70"/>
<path d="M414.557 85.6732C411.89 84.0065 406.557 79.2732 406.557 73.6732C406.89 72.1731 407.757 68.6731 408.557 66.6732C409.89 63.0065 416.057 58.1732 430.057 68.1732C434.057 70.5065 440.457 76.9732 434.057 84.1732C431.224 87.0065 423.357 91.2732 414.557 85.6732Z" fill="#691C70" stroke="#691C70"/>
<path d="M535.057 292.673C529.891 286.84 518.357 271.573 513.557 257.173C511.224 248.84 502.357 227.773 485.557 210.173C477.224 199.506 454.357 174.773 429.557 161.173C410.557 151.173 369.557 130.973 357.557 130.173C352.724 129.673 344.157 126.773 348.557 119.173C351.39 115.006 363.657 109.573 390.057 121.173C400.724 126.506 422.757 136.573 425.557 134.173C426.724 133.173 426.457 129.673 416.057 123.673C409.89 120.173 394.657 111.873 383.057 106.673C377.89 104.34 365.057 98.8731 355.057 95.6731C354.39 95.5064 351.257 94.4731 344.057 91.6731C339.891 90.1731 334.357 83.6731 345.557 69.6732C347.391 67.5065 355.157 64.9732 371.557 72.1732C374.391 73.3398 385.757 79.4732 408.557 94.6732C420.057 101.673 448.557 116.873 466.557 137.673C473.557 145.506 488.857 160.673 494.057 158.673C495.557 158.006 495.557 153.673 483.557 141.673C479.557 137.84 469.657 128.573 462.057 122.173C456.224 117.173 446.357 105.373 453.557 98.1732C456.224 95.1732 464.857 92.1732 478.057 104.173C492.724 117.507 523.257 146.673 528.057 156.673C529.057 158.673 529.057 159.173 533.557 163.173C536.724 166.507 545.157 176.673 553.557 190.673C559.557 200.84 570.857 223.373 568.057 232.173C567.557 234.007 565.857 238.173 563.057 240.173C561.724 241.34 557.957 243.173 553.557 241.173C551.724 240.173 547.757 236.973 546.557 232.173C545.557 228.673 542.757 220.573 539.557 216.173C534.724 209.173 523.557 193.673 517.557 187.673C514.557 184.673 514.357 184.673 507.557 184.673C506.057 184.507 504.757 185.673 511.557 191.673C513.391 193.173 518.657 198.573 525.057 208.173C528.391 212.34 537.257 225.873 546.057 246.673C551.057 260.34 558.957 289.173 550.557 295.173C547.724 297.507 540.657 300.273 535.057 292.673Z" fill="#007AFF" stroke="#007AFF"/>
<path d="M656.056 350.173C655.389 349.506 653.456 347.473 649.056 346.673C647.222 346.34 644.456 346.673 642.056 348.673C640.556 349.84 637.556 352.073 635.556 357.673C635.389 358.506 634.556 361.373 634.556 368.173C634.556 370.34 634.957 375.373 636.557 380.173C637.724 382.173 640.157 386.173 646.557 390.173C647.557 390.506 650.557 390.973 654.557 390.173C656.057 389.173 657.657 386.873 660.057 383.673C660.39 383.34 661.057 381.673 663.057 375.673C663.39 373.34 664.956 368.873 664.556 363.673C664.556 362.173 664.456 359.873 662.056 356.673C661.222 355.673 659.256 352.573 656.056 350.173Z" fill="#691C70" stroke="#691C70"/>
<path d="M268.057 616.673C266.391 616.506 262.557 616.173 258.557 616.673H258.557C258.057 616.673 256.557 616.673 254.557 617.673C254.557 617.673 253.557 617.673 252.557 620.173C252.057 621.673 251.958 624.673 253.558 626.673C253.957 627.173 254.157 628.173 258.557 630.173C260.391 631.006 265.157 632.573 269.557 632.173C271.391 632.173 274.857 632.073 278.057 629.673C278.891 628.506 279.557 627.173 279.057 623.173C279.057 621.673 272.457 617.073 268.057 616.673Z" fill="#691C70" stroke="#691C70"/>
<path d="M500.057 577.173C498.89 576.506 495.557 574.673 487.557 574.673C486.057 574.673 481.056 574.173 476.557 578.673C475.057 580.173 472.057 582.673 468.557 588.173C466.89 590.34 464.257 595.073 463.057 600.673C462.723 603.84 461.757 610.273 466.557 612.673C468.557 613.673 473.957 614.973 481.557 614.173C485.557 613.506 493.757 611.773 500.557 608.173C502.723 607.173 507.857 604.473 511.057 599.673C511.89 597.84 513.557 594.673 512.557 589.673C512.557 588.84 512.057 586.273 508.057 582.673C507.557 582.173 506.457 580.773 500.057 577.173Z" fill="#691C70" stroke="#691C70"/>
<path d="M79.557 473.173C78.3903 473.34 75.757 474.573 72.557 476.173C69.057 479.673 67.8295 482.673 67.5568 484.173C66.7388 488.673 67.2235 495.673 67.5568 498.673C69.557 504.673 71.3903 508.173 72.057 509.173C73.657 512.773 75.3903 515.34 76.057 516.173C77.657 518.573 79.3902 519.506 80.0568 519.673C85.0568 521.673 95.6568 522.573 100.057 522.173C100.057 522.173 104.057 522.173 109.057 520.173C110.723 519.673 112.157 518.773 114.557 517.173L114.573 517.16C116.244 515.824 119.462 513.249 121.057 505.673C121.39 503.84 121.857 501.473 121.057 494.673C120.89 493.84 120.757 491.873 117.557 486.673C117.223 486.173 116.657 484.473 111.057 479.673C110.557 479.34 109.157 477.573 103.557 475.173C101.723 474.84 96.757 472.673 87.557 472.673C86.3903 472.673 83.157 472.773 79.557 473.173Z" fill="#691C70" stroke="#691C70"/>
<path d="M48.5574 343.173C48.0574 342.84 45.0574 342.173 44.0574 342.173C43.2241 342.006 41.1574 342.373 39.5574 343.173C39.0571 343.423 36.6574 345.073 35.0574 346.673C35.0574 346.673 34.3574 347.473 33.5574 350.673C33.3071 351.673 33.2574 356.573 34.0574 360.173C34.2796 361.173 36.2574 363.573 39.0574 365.173C40.3347 365.903 45.0574 365.973 47.0574 365.173C48.5574 364.573 51.2574 360.973 52.0574 358.173C52.5574 356.173 53.4574 351.673 53.0574 349.673C53.0574 349.173 52.7574 346.773 51.5574 345.173C51.3907 344.84 50.5574 343.973 48.5574 343.173Z" fill="#691C70" stroke="#691C70"/>
<path d="M296.057 39.1732C295.557 39.1732 293.357 38.9731 288.557 40.1731C288.057 40.1731 285.657 40.8732 284.057 41.6732C283.724 41.8398 282.357 42.7732 279.557 45.1732C278.557 46.0065 276.057 48.4732 274.057 51.6732C273.39 52.5065 272.157 55.0732 272.557 58.6732C272.557 59.3398 272.657 61.2732 273.057 63.6732C273.39 64.8398 274.957 67.9732 278.557 71.1732C279.39 72.0065 282.157 74.1732 286.557 76.1732C289.39 77.5065 297.257 80.1732 306.057 80.1732C308.557 80.1732 314.557 80.1732 318.057 79.1732C318.557 79.1732 322.457 76.7732 326.057 73.1732C326.724 72.3398 328.457 69.3732 330.057 64.1732C330.557 62.0065 332.057 57.1731 331.557 55.1731L331.057 53.1731C331.057 52.6731 328.557 49.6731 325.057 47.1732L321.557 44.6732C320.557 44.0065 317.657 42.3732 314.057 41.1732C313.39 40.8398 311.057 40.0732 307.057 39.6732C304.89 39.5065 299.657 39.1732 296.057 39.1732Z" fill="#691C70" stroke="#691C70"/>
<path d="M329.557 127.173C329.557 127.173 331.757 123.473 328.557 116.673C326.557 113.34 320.557 106.673 311.057 100.673C305.057 96.8836 288.957 90.9731 270.557 96.1732C256.557 100.173 250.557 101.673 234.057 112.173C224.557 117.173 219.157 120.373 191.557 145.173C182.89 154.34 161.957 178.273 147.557 200.673C142.057 209.006 129.357 229.473 122.557 244.673C120.544 249.173 119.757 249.373 118.557 254.173C118.057 255.673 115.557 255.673 112.557 254.173C111.057 253.423 111.057 252.773 111.057 249.173C111.057 245.173 111.868 242.173 114.557 236.673C118.224 229.173 127.957 211.173 137.557 199.173C140.557 195.506 147.757 186.373 152.557 179.173C155.89 174.173 157.057 173.173 158.057 170.173C158.89 165.173 162.557 151.673 150.057 156.673C143.557 159.673 141.657 157.973 128.057 165.173C123.39 168.173 110.857 178.873 98.0571 197.673C90.8905 207.84 78.4143 226.173 69.5571 257.173C68.5571 260.673 69.0571 258.873 67.0571 265.673C64.5571 274.173 58.0571 314.673 58.0571 321.673C58.0571 328.673 55.0571 354.173 73.0571 376.173C78.0571 380.507 88.7571 387.273 91.5571 379.673C92.0571 377.507 93.0571 371.173 93.0571 363.173C93.0571 353.173 92.0571 353.173 91.5571 347.173C91.0571 341.173 90.5571 347.173 90.5571 328.173C91.0571 321.007 91.7573 304.173 92.5571 294.173C93.0571 290.173 94.5571 284.173 100.057 275.673C100.89 274.173 103.157 271.673 105.557 273.673C106.557 274.673 106.357 274.973 105.557 278.173C105.129 279.886 102.957 285.273 100.557 295.673C100.057 297.84 98.657 306.573 97.0569 324.173C96.5569 332.507 95.657 353.773 96.0571 372.173C96.0735 372.929 95.6571 376.773 98.0571 387.173C98.8904 391.173 101.657 401.473 106.057 410.673C108.39 415.173 115.057 426.173 123.057 432.173C125.557 434.048 130.057 437.173 136.057 435.173C136.89 435.007 139.757 433.673 144.557 429.673C146.39 427.84 148.451 423.854 147.057 419.673C146.89 419.173 145.957 417.173 143.557 413.173C141.224 409.007 135.657 396.973 132.057 382.173C129.557 370.34 124.557 343.973 124.557 333.173C123.724 322.173 125.457 292.973 139.057 264.173C142.224 256.84 152.857 236.773 170.057 215.173C176.057 207.84 192.557 189.873 210.557 176.673C215.057 172.673 231.157 161.873 259.557 150.673C273.391 145.84 304.657 135.873 319.057 134.673C321.057 135.006 325.957 133.973 329.557 127.173Z" fill="#00A400" stroke="#00A400"/>
<path d="M122.057 144.673C120.057 147.173 114.657 154.173 99.0574 162.173L88.5571 168.173C83.5571 170.506 72.1571 173.973 66.5571 169.173C63.5571 166.84 57.2572 160.373 56.0574 153.173C55.724 149.006 56.4574 139.173 62.0574 133.173C66.8907 126.673 77.6571 110.773 86.0571 101.173C92.0571 93.6731 95.3573 85.6731 112.557 85.6731C118.557 86.3398 131.157 91.3731 133.557 106.173V114.673C133.724 120.506 130.457 134.173 122.057 144.673Z" fill="#691C70" stroke="#691C70"/>
<path d="M191.948 471.043C200.781 480.377 224.648 501.743 249.448 512.543C253.781 516.71 278.748 526.743 343.948 533.543C352.057 533.543 361.248 535.843 400.448 525.043C412.781 522.543 444.148 510.043 470.948 480.043C479.448 471.877 503.557 441.673 516.057 403.173C518.057 395.673 524.448 383.543 524.448 337.543C523.948 319.377 517.748 274.143 496.948 238.543C490.614 230.71 474.348 211.443 459.948 197.043C441.448 178.543 390.448 142.643 334.448 147.043C320.781 146.71 282.948 149.143 244.948 171.543C233.448 178.322 202.648 195.643 173.448 232.043C161.448 244.71 137.448 280.043 137.448 320.043C136.115 332.543 137.448 367.943 153.448 409.543C156.615 420.043 168.748 447.043 191.948 471.043Z" fill="#691C70" stroke="#691C70"/>
<circle cx="331.557" cy="343.173" r="167.5" fill="#D9D9D9"/>
<path d="M178.057 106.673C178.057 106.673 169.432 105.173 164.557 98.6733C163.557 97.3399 161.557 93.3731 161.557 88.1731C161.39 87.0064 160.057 82.1731 163.057 78.6731C164.13 77.4207 170.057 70.1732 178.057 70.1732C179.057 69.6732 183.157 69.4732 191.557 72.6732C193.057 73.1732 197.057 75.4732 201.057 80.6732C201.057 80.6732 205.057 88.1731 203.057 93.6731C203.057 93.6731 203.057 100.673 193.557 105.173C191.89 105.673 186.457 106.673 178.057 106.673Z" fill="#691C70" stroke="#691C70"/>
<path d="M73.0571 193.673C73.5571 193.673 68.0571 191.673 66.5571 192.173L65.0571 192.673C65.0571 192.673 63.8571 193.373 63.0571 194.173L60.0571 197.173C59.5571 197.673 58.2571 199.073 57.0571 200.673C56.5571 201.34 55.5571 203.173 55.5571 205.173C55.5571 205.84 55.0571 208.173 56.0571 211.173C56.3344 212.005 56.8571 212.873 60.0571 215.673C60.5571 216.173 62.3571 217.173 65.5571 217.173C66.3905 217.173 68.6571 217.073 71.0571 216.673C72.0571 216.506 73.5571 215.173 75.5571 213.173C76.3905 212.34 78.5571 210.173 78.5571 208.173C78.5571 206.173 78.4571 201.873 78.0571 200.673C77.6571 199.473 75.8571 196.473 73.0571 193.673Z" fill="#691C70" stroke="#691C70"/>
<path d="M166.557 449.173C164.224 444.006 158.457 433.673 154.057 433.673C152.724 432.84 148.757 433.273 143.557 441.673C141.89 444.673 139.157 453.473 141.557 464.673C142.39 468.673 146.757 480.473 157.557 495.673C164.057 503.34 180.657 520.973 195.057 530.173C204.057 534.84 226.057 545.573 242.057 551.173C251.557 553.34 274.657 557.873 291.057 558.673C295.224 559.006 303.357 561.073 302.557 566.673C302.39 568.173 299.457 570.873 289.057 569.673C283.057 569.006 268.757 567.173 259.557 565.173C254.39 563.506 242.257 559.073 235.057 554.673C224.89 550.34 203.557 541.473 199.557 540.673C197.724 540.34 192.957 539.673 188.557 539.673C187.224 539.673 184.257 539.973 183.057 541.173C182.39 542.006 180.857 544.073 180.057 545.673C179.557 546.84 179.557 550.173 183.557 554.173C186.89 557.506 193.657 565.173 194.057 569.173C194.057 570.673 193.257 573.673 190.057 573.673C189.39 573.673 187.257 572.973 184.057 570.173C176.557 565.173 161.894 553.01 156.557 547.673L149.557 540.673C147.557 538.673 140.757 534.173 131.557 532.173C129.736 531.777 125.757 531.173 120.557 537.173C118.891 539.006 116.857 545.473 122.057 556.673C125.224 562.173 134.557 575.773 146.557 586.173C155.057 593.34 176.057 609.573 192.057 617.173C198.891 619.84 215.357 625.173 226.557 625.173C230.224 624.84 237.557 622.973 237.557 618.173C237.391 617.34 236.757 615.173 235.557 613.173C235.057 611.84 230.857 607.073 218.057 598.673C215.557 596.506 210.457 591.873 210.057 590.673C209.557 589.173 210.057 586.673 210.557 586.173C211.057 585.673 212.057 584.673 214.557 586.173C217.057 587.673 217.057 587.673 219.057 589.673C221.557 592.173 245.057 603.673 254.057 606.673C263.057 609.673 267.557 610.673 274.057 612.173C280.557 613.673 291.557 613.673 296.557 613.673C301.557 613.673 305.557 613.173 309.057 613.673C312.557 614.173 315.557 614.673 319.557 615.673C323.557 616.673 323.557 616.673 329.557 617.673C335.557 618.673 337.057 618.673 350.057 618.673C363.057 618.673 361.057 618.673 372.557 617.673C384.057 616.673 388.057 616.173 405.057 611.173C409.724 609.673 420.057 606.273 424.057 604.673C429.057 602.673 451.057 592.173 454.557 589.673C458.057 587.173 460.557 585.173 463.057 582.673C465.557 580.173 467.057 578.173 469.057 575.673C471.057 573.173 472.057 571.173 472.557 569.673C473.057 568.173 473.057 567.173 473.057 564.673C473.057 562.173 472.557 558.673 469.057 557.673C465.557 556.673 466.557 556.673 459.557 558.173C452.557 559.673 451.057 559.673 438.057 565.173C425.057 570.673 419.057 574.173 401.057 576.673C394.057 577.506 376.057 579.173 360.057 579.173L359.695 579.173C352.971 579.175 350.557 579.176 350.557 573.673C350.557 571.84 352.257 568.173 359.057 568.173C364.724 568.34 380.457 568.173 398.057 566.173C406.557 565.173 428.957 560.773 450.557 551.173C462.557 545.173 487.657 529.773 492.057 516.173C492.891 513.34 494.857 506.273 494.057 500.673C493.486 496.673 492.457 494.173 484.057 494.173C477.557 494.673 475.057 496.673 469.557 501.673C466.224 505.506 455.157 515.173 437.557 523.173C424.724 529.84 387.857 543.173 343.057 543.173C335.724 543.34 312.557 540.973 278.557 530.173C267.891 526.173 241.457 515.173 221.057 503.173C207.724 495.173 178.157 473.173 166.557 449.173Z" fill="#D20000" stroke="#D20000"/>
<path d="M597.558 473.673C596.391 473.506 593.658 473.073 590.058 474.673C589.391 474.34 587.558 475.573 583.558 477.173C582.724 477.673 580.358 478.973 577.558 482.173C576.391 483.173 572.858 486.473 568.058 491.673C566.724 492.84 563.357 496.073 556.557 503.673C555.724 504.34 552.857 506.873 548.057 513.673C546.891 515.006 544.057 519.473 542.057 524.673C541.724 526.34 539.757 530.673 540.558 538.673C540.391 539.506 540.258 540.973 543.058 544.173C543.724 544.84 546.258 546.573 553.058 546.173C554.224 546.34 557.558 544.973 565.558 542.173C567.724 541.173 574.558 539.473 580.558 534.673C582.558 533.34 587.158 529.473 591.558 524.673C593.058 523.34 597.458 519.273 601.058 513.673C602.058 512.506 604.458 509.573 606.058 505.173C606.391 504.173 607.558 501.273 607.558 497.673C607.724 495.006 607.758 488.473 606.558 481.673C606.558 481.173 605.758 478.473 602.558 475.673C601.891 475.34 600.758 474.073 597.558 473.673Z" fill="#691C70" stroke="#691C70"/>
<path d="M503.559 509.673C506.059 506.828 511.359 500.773 522.559 481.173C524.891 478.006 531.157 468.773 537.557 457.173C538.89 451.34 540.757 439.173 537.557 437.173C536.39 435.84 533.157 435.473 529.557 444.673C526.724 451.506 518.857 466.273 510.057 470.673C506.057 472.673 497.257 475.673 494.057 471.673C492.224 469.673 489.957 464.273 495.557 458.673C502.557 451.173 518.157 430.273 524.557 406.673C526.89 396.006 531.357 367.373 530.557 338.173C531.39 332.673 533.857 320.873 537.057 317.673C539.057 316.173 539.657 316.573 550.057 324.173C552.224 326.006 556.757 332.773 557.557 345.173C557.557 350.673 556.957 362.973 554.557 368.173C552.89 371.506 549.957 378.673 551.557 380.673C552.557 382.006 555.357 383.373 558.557 378.173C560.39 375.173 564.157 366.373 564.557 355.173C564.724 346.006 564.657 326.473 563.057 321.673C561.724 318.84 562.557 313.473 576.557 314.673C579.057 315.006 584.457 320.173 586.057 338.173C586.39 344.006 586.357 358.873 583.557 371.673C582.89 375.173 581.957 382.273 583.557 382.673C586.557 383.506 592.657 382.473 593.057 371.673C593.557 360.006 594.157 333.973 592.557 323.173C590.224 312.173 584.357 288.373 579.557 281.173C576.557 277.34 570.857 266.573 572.057 254.173C572.39 250.84 574.957 244.273 582.557 244.673C589.224 245.173 604.457 249.473 612.057 262.673C614.39 266.506 619.257 278.673 620.057 296.673C620.557 311.673 621.157 345.973 619.557 363.173C619.224 368.673 618.257 382.373 617.057 393.173C616.89 397.006 615.557 408.873 611.557 425.673C610.89 429.84 607.557 441.773 599.557 456.173C597.057 460.673 589.857 469.373 581.057 468.173C578.89 467.84 575.457 464.073 579.057 451.673C581.224 442.34 585.757 421.973 586.557 415.173C586.724 414.173 586.457 411.773 584.057 410.173C582.89 409.673 580.457 409.873 580.057 414.673C580.057 415.506 579.657 419.273 578.057 427.673C576.224 435.506 571.357 453.873 566.557 464.673C562.557 473.506 552.157 494.273 542.557 506.673C537.224 513.506 524.357 528.473 515.557 533.673C509.557 537.673 496.557 543.673 492.557 535.673C491.39 532.006 491.959 522.873 503.559 509.673Z" fill="#F59A23" stroke="#F59A23"/>
</svg>
